<svg
        viewBox="0 0 16 16"
        fill="none"
        xmlns="http://www.w3.org/2000/svg"
    >
        <path
            d="M1.56303 2.47671C1.44986 3.02138 1.49738 3.71441 1.63686 4.37842C1.69363 4.64866 1.541 4.92478 1.2753 5C1.00959 5.07522 0.731709 4.92109 0.672681 4.65133C0.50459 3.88314 0.429712 3.01558 0.583935 2.27329C0.678911 1.81616 0.868999 1.36788 1.21761 1.03105C1.57644 0.684342 2.05759 0.5 2.64093 0.5H2.82435L2.96427 0.618615C3.37139 0.963772 3.98071 1.53164 4.49307 2.1224C4.74882 2.41727 4.99046 2.7293 5.17092 3.03057C5.25931 3.17814 5.3443 3.34125 5.40576 3.51149C5.49954 3.77123 5.27433 4 4.99819 4C4.72404 4 4.45391 3.77961 4.31304 3.54443C4.17404 3.31237 3.97335 3.0494 3.73762 2.7776C3.32496 2.30181 2.83569 1.83405 2.46577 1.50931C2.20642 1.53829 2.03469 1.6321 1.91246 1.7502C1.75436 1.90296 1.63253 2.14217 1.56303 2.47671Z"
            fill="url(#paint0_linear_1176_680)"
        />
        <path
            fill-rule="evenodd"
            clip-rule="evenodd"
            d="M7.5 9C7.5 10.5649 6.00222 11.85 4.09091 11.9878C4.06097 11.9959 4.03064 12 4 12C3.98235 12 3.9648 11.9986 3.94737 11.9959C3.88201 11.9986 3.8162 12 3.75 12C1.67893 12 0 10.6569 0 9C0 7.34315 1.67893 6 3.75 6C3.8162 6 3.88201 6.00137 3.94737 6.00408C3.9648 6.00137 3.98235 6 4 6C4.03064 6 4.06097 6.00414 4.09091 6.01223C6.00222 6.15002 7.5 7.43508 7.5 9ZM3 9C3 9.75292 3.09246 10.4411 3.24517 10.9678C1.81723 10.781 1 9.81606 1 9C1 8.18394 1.81723 7.219 3.24517 7.03219C3.09246 7.55894 3 8.24708 3 9ZM5 9C5 8.29929 4.91992 7.65468 4.78572 7.14406C5.88347 7.47006 6.5 8.29119 6.5 9C6.5 9.70881 5.88346 10.5299 4.78572 10.8559C4.91992 10.3453 5 9.70071 5 9Z"
            fill="url(#paint1_linear_1176_680)"
        />
        <path
            fill-rule="evenodd"
            clip-rule="evenodd"
            d="M12.25 12C12.1838 12 12.118 11.9986 12.0526 11.9959C12.0352 11.9986 12.0177 12 12 12C11.9694 12 11.939 11.9959 11.9091 11.9878C9.99778 11.85 8.5 10.5649 8.5 9C8.5 7.43508 9.99778 6.15002 11.9091 6.01223C11.939 6.00414 11.9694 6 12 6C12.0177 6 12.0352 6.00137 12.0526 6.00408C12.118 6.00137 12.1838 6 12.25 6C14.3211 6 16 7.34315 16 9C16 10.6569 14.3211 12 12.25 12ZM11 9C11 9.70071 11.0801 10.3453 11.2143 10.8559C10.1165 10.5299 9.5 9.70881 9.5 9C9.5 8.29119 10.1165 7.47006 11.2143 7.14406C11.0801 7.65468 11 8.29929 11 9ZM13 9C13 8.24708 12.9075 7.55894 12.7548 7.03219C14.1828 7.219 15 8.18394 15 9C15 9.81606 14.1828 10.781 12.7548 10.9678C12.9075 10.4411 13 9.75292 13 9Z"
            fill="url(#paint2_linear_1176_680)"
        />
        <path
            d="M8.25 13.9683C8.13841 14.17 7.99259 14.3512 7.81869 14.5037C7.60465 14.6914 7.353 14.8313 7.08057 14.9139C6.80814 14.9966 6.5212 15.0201 6.23895 14.983C5.95669 14.9458 5.68562 14.8488 5.44386 14.6985C5.2021 14.5481 4.99523 14.3479 4.83706 14.1112C4.6789 13.8745 4.57309 13.6067 4.52671 13.3259C4.50214 13.177 4.49455 13.0263 4.50382 12.8765C4.51746 12.6561 4.74113 12.5288 4.95452 12.5859C5.1679 12.6431 5.28728 12.8655 5.30307 13.0858C5.3057 13.1225 5.31002 13.1591 5.31603 13.1955C5.34385 13.3641 5.40734 13.5247 5.50224 13.6667C5.59714 13.8088 5.72126 13.9289 5.86632 14.0191C6.01137 14.1093 6.17402 14.1675 6.34337 14.1898C6.51272 14.2121 6.68488 14.198 6.84834 14.1484C7.0118 14.0988 7.16279 14.0149 7.29121 13.9023C7.41964 13.7896 7.52254 13.6509 7.59304 13.4953C7.7094 13.2385 7.92856 13.0001 8.21051 13.0001H8.28949C8.57144 13.0001 8.7906 13.2385 8.90696 13.4953C8.97746 13.6509 9.08036 13.7896 9.20879 13.9023C9.33721 14.0149 9.4882 14.0988 9.65166 14.1484C9.81512 14.198 9.98728 14.2121 10.1566 14.1898C10.326 14.1675 10.4886 14.1093 10.6337 14.0191C10.7787 13.9289 10.9029 13.8088 10.9978 13.6667C11.0927 13.5247 11.1561 13.3641 11.184 13.1955C11.19 13.1591 11.1943 13.1225 11.1969 13.0858C11.2127 12.8655 11.3321 12.6431 11.5455 12.5859C11.7589 12.5288 11.9825 12.656 11.9962 12.8765C12.0054 13.0263 11.9979 13.177 11.9733 13.3259C11.9269 13.6067 11.8211 13.8745 11.6629 14.1112C11.5048 14.3479 11.2979 14.5481 11.0561 14.6985C10.8144 14.8488 10.5433 14.9458 10.2611 14.983C9.9788 15.0201 9.69186 14.9966 9.41943 14.9139C9.147 14.8313 8.89535 14.6914 8.68131 14.5037C8.50741 14.3512 8.36159 14.17 8.25 13.9683Z"
            fill="url(#paint3_linear_1176_680)"
        />
        <path
            d="M14.7247 5C14.459 4.92478 14.3064 4.64866 14.3631 4.37842C14.5026 3.71441 14.5501 3.02138 14.437 2.47671C14.3675 2.14217 14.2456 1.90296 14.0875 1.7502C13.9653 1.6321 13.7936 1.53829 13.5342 1.50931C13.1643 1.83405 12.675 2.30181 12.2624 2.7776C12.0266 3.0494 11.826 3.31237 11.687 3.54443C11.5461 3.77961 11.276 4 11.0018 4C10.7257 4 10.5005 3.77123 10.5942 3.51149C10.6557 3.34125 10.7407 3.17814 10.8291 3.03057C11.0095 2.7293 11.2512 2.41727 11.5069 2.1224C12.0193 1.53164 12.6286 0.963772 13.0357 0.618615L13.1756 0.5H13.3591C13.9424 0.5 14.4236 0.684342 14.7824 1.03105C15.131 1.36788 15.3211 1.81616 15.4161 2.27329C15.5703 3.01558 15.4954 3.88314 15.3273 4.65133C15.2683 4.92109 14.9904 5.07522 14.7247 5Z"
            fill="url(#paint4_linear_1176_680)"
        />
        <defs>
            <linearGradient
                id="paint0_linear_1176_680"
                x1="16"
                y1="0.999999"
                x2="-9.72392e-07"
                y2="15"
                gradientUnits="userSpaceOnUse"
            >
                <stop stop-color="#F6D365" />
                <stop offset="1" stop-color="#FDA085" />
            </linearGradient>
            <linearGradient
                id="paint1_linear_1176_680"
                x1="16"
                y1="0.999999"
                x2="-9.72392e-07"
                y2="15"
                gradientUnits="userSpaceOnUse"
            >
                <stop stop-color="#F6D365" />
                <stop offset="1" stop-color="#FDA085" />
            </linearGradient>
            <linearGradient
                id="paint2_linear_1176_680"
                x1="16"
                y1="0.999999"
                x2="-9.72392e-07"
                y2="15"
                gradientUnits="userSpaceOnUse"
            >
                <stop stop-color="#F6D365" />
                <stop offset="1" stop-color="#FDA085" />
            </linearGradient>
            <linearGradient
                id="paint3_linear_1176_680"
                x1="16"
                y1="0.999999"
                x2="-9.72392e-07"
                y2="15"
                gradientUnits="userSpaceOnUse"
            >
                <stop stop-color="#F6D365" />
                <stop offset="1" stop-color="#FDA085" />
            </linearGradient>
            <linearGradient
                id="paint4_linear_1176_680"
                x1="16"
                y1="0.999999"
                x2="-9.72392e-07"
                y2="15"
                gradientUnits="userSpaceOnUse"
            >
                <stop stop-color="#F6D365" />
                <stop offset="1" stop-color="#FDA085" />
            </linearGradient>
        </defs>
    </svg>